<?xml version="1.0" encoding="UTF-8"?>
<svg xmlns="http://www.w3.org/2000/svg" version="1.1" width="300" height="300" viewBox="0 0 300 300"><rect x="0" y="0" width="300" height="300" fill="#ffffff"/><g transform="scale(10.345)"><g transform="translate(0,0)"><path fill-rule="evenodd" d="M8 0L8 1L9 1L9 2L8 2L8 5L9 5L9 4L11 4L11 5L10 5L10 10L9 10L9 11L7 11L7 10L8 10L8 9L9 9L9 8L8 8L8 9L7 9L7 8L6 8L6 9L4 9L4 8L0 8L0 11L1 11L1 9L2 9L2 10L3 10L3 11L4 11L4 12L3 12L3 14L1 14L1 12L0 12L0 14L1 14L1 16L0 16L0 17L1 17L1 18L0 18L0 19L1 19L1 18L2 18L2 17L3 17L3 19L2 19L2 20L1 20L1 21L2 21L2 20L3 20L3 19L5 19L5 21L7 21L7 20L6 20L6 19L8 19L8 15L10 15L10 13L11 13L11 16L10 16L10 18L9 18L9 20L10 20L10 21L11 21L11 20L12 20L12 19L11 19L11 20L10 20L10 18L11 18L11 16L12 16L12 17L13 17L13 16L12 16L12 14L13 14L13 15L14 15L14 18L13 18L13 21L15 21L15 20L16 20L16 21L18 21L18 22L19 22L19 23L18 23L18 24L17 24L17 23L15 23L15 22L14 22L14 23L9 23L9 25L8 25L8 29L9 29L9 28L11 28L11 29L12 29L12 28L14 28L14 27L15 27L15 26L16 26L16 27L17 27L17 26L18 26L18 27L20 27L20 28L19 28L19 29L21 29L21 28L22 28L22 29L24 29L24 28L22 28L22 27L21 27L21 25L23 25L23 27L24 27L24 26L25 26L25 27L26 27L26 25L27 25L27 24L26 24L26 23L25 23L25 22L26 22L26 21L27 21L27 20L29 20L29 19L28 19L28 18L27 18L27 17L26 17L26 16L25 16L25 15L27 15L27 16L29 16L29 11L28 11L28 10L29 10L29 8L28 8L28 9L27 9L27 8L24 8L24 9L22 9L22 8L21 8L21 9L19 9L19 8L20 8L20 7L21 7L21 4L19 4L19 3L17 3L17 2L19 2L19 1L20 1L20 2L21 2L21 1L20 1L20 0L17 0L17 2L16 2L16 3L14 3L14 2L15 2L15 1L13 1L13 0L12 0L12 1L11 1L11 0L10 0L10 1L9 1L9 0ZM11 2L11 4L12 4L12 3L13 3L13 2ZM14 4L14 5L15 5L15 7L14 7L14 6L13 6L13 5L12 5L12 6L11 6L11 8L12 8L12 6L13 6L13 8L14 8L14 11L11 11L11 13L12 13L12 12L13 12L13 14L14 14L14 15L17 15L17 17L18 17L18 18L16 18L16 20L17 20L17 19L18 19L18 18L19 18L19 20L22 20L22 19L20 19L20 17L18 17L18 15L19 15L19 16L20 16L20 15L22 15L22 13L23 13L23 14L24 14L24 15L23 15L23 16L21 16L21 17L22 17L22 18L23 18L23 20L24 20L24 19L25 19L25 21L26 21L26 18L25 18L25 17L24 17L24 18L23 18L23 16L24 16L24 15L25 15L25 14L26 14L26 12L27 12L27 11L26 11L26 10L27 10L27 9L26 9L26 10L22 10L22 11L26 11L26 12L22 12L22 13L21 13L21 12L20 12L20 15L19 15L19 14L18 14L18 15L17 15L17 12L18 12L18 13L19 13L19 11L20 11L20 10L19 10L19 9L17 9L17 7L18 7L18 8L19 8L19 7L20 7L20 6L19 6L19 4L18 4L18 6L17 6L17 7L16 7L16 5L17 5L17 4L16 4L16 5L15 5L15 4ZM8 6L8 7L9 7L9 6ZM18 6L18 7L19 7L19 6ZM6 9L6 10L4 10L4 11L5 11L5 13L6 13L6 14L8 14L8 13L9 13L9 12L8 12L8 13L6 13L6 12L7 12L7 11L6 11L6 10L7 10L7 9ZM11 9L11 10L12 10L12 9ZM17 10L17 11L18 11L18 10ZM15 11L15 12L14 12L14 14L16 14L16 13L15 13L15 12L16 12L16 11ZM27 13L27 14L28 14L28 13ZM2 15L2 16L4 16L4 15ZM5 15L5 16L7 16L7 15ZM15 16L15 17L16 17L16 16ZM4 17L4 18L5 18L5 19L6 19L6 18L7 18L7 17ZM8 21L8 22L9 22L9 21ZM19 21L19 22L20 22L20 21ZM21 21L21 24L24 24L24 21ZM28 21L28 22L27 22L27 23L28 23L28 22L29 22L29 21ZM22 22L22 23L23 23L23 22ZM19 23L19 24L18 24L18 26L20 26L20 23ZM12 24L12 26L10 26L10 27L11 27L11 28L12 28L12 26L13 26L13 27L14 27L14 26L15 26L15 25L16 25L16 26L17 26L17 25L16 25L16 24ZM25 24L25 25L26 25L26 24ZM13 25L13 26L14 26L14 25ZM28 25L28 27L27 27L27 29L28 29L28 27L29 27L29 25ZM0 0L0 7L7 7L7 0ZM1 1L1 6L6 6L6 1ZM2 2L2 5L5 5L5 2ZM22 0L22 7L29 7L29 0ZM23 1L23 6L28 6L28 1ZM24 2L24 5L27 5L27 2ZM0 22L0 29L7 29L7 22ZM1 23L1 28L6 28L6 23ZM2 24L2 27L5 27L5 24Z" fill="#000000"/></g></g></svg>
